<svg width="34" height="34" viewBox="0 0 34 34" fill="none" xmlns="http://www.w3.org/2000/svg">
<rect width="34" height="34" rx="17" fill="black"/>
<path d="M22.8334 15.75V14.3333H19.1667V19.6667H20.5834V18H22.25V16.5833H20.5834V15.75H22.8334V15.75ZM16.75 14.3333H18.1667V19.6667H16.75V14.3333ZM13.75 15.6667C14.0834 15.6667 14.5 15.8333 14.75 16.0833L15.75 15.25C15.25 14.6667 14.5 14.3333 13.75 14.3333C12.25 14.3333 11.0834 15.5 11.0834 17C11.0834 18.5 12.25 19.6667 13.75 19.6667C14.5834 19.6667 15.25 19.3333 15.75 18.75V16.6667H13.4167V17.6667H14.4167V18.1667C14.25 18.25 14 18.3333 13.75 18.3333C13 18.3333 12.4167 17.75 12.4167 17C12.4167 16.3333 13 15.6667 13.75 15.6667V15.6667Z" fill="#1D9BF0"/>
<path d="M24.0834 8.68333H9.91669C8.88335 8.68333 8.04169 9.5225 8.04169 10.5558V23.4783C8.04169 24.51 8.88335 25.35 9.91669 25.35H24.0834C25.1167 25.35 25.9584 24.51 25.9584 23.4783V10.5558C25.9584 9.5225 25.1167 8.68333 24.0834 8.68333V8.68333ZM24.7084 23.4783C24.7084 23.82 24.4284 24.1 24.0834 24.1H9.91669C9.57169 24.1 9.29169 23.82 9.29169 23.4783V10.5558C9.29169 10.2125 9.57169 9.93333 9.91669 9.93333H24.0834C24.4284 9.93333 24.7084 10.2125 24.7084 10.5558V23.4783Z" fill="#1D9BF0"/>
</svg>
