<svg width="18" height="18" viewBox="0 0 18 18" fill="none" xmlns="http://www.w3.org/2000/svg">
<path d="M15.4584 0.666664H2.54169C1.50835 0.666664 0.666687 1.50833 0.666687 2.54166V15.4583C0.666687 16.4917 1.50835 17.3333 2.54169 17.3333H15.4584C16.4917 17.3333 17.3334 16.4917 17.3334 15.4583V2.54166C17.3334 1.50833 16.4917 0.666664 15.4584 0.666664ZM2.54169 1.91666H15.4584C15.8025 1.91666 16.0834 2.1975 16.0834 2.54166V10.605L12.8684 7.39C12.7517 7.27333 12.5934 7.20666 12.4267 7.20666H12.4242C12.2575 7.20666 12.0967 7.27333 11.9809 7.39333L8.38335 11.0467L6.87252 9.54166C6.75585 9.425 6.59752 9.35833 6.43085 9.35833C6.27002 9.33333 6.10169 9.425 5.98502 9.5475L1.91669 13.7017V2.54166C1.91669 2.1975 2.19752 1.91666 2.54169 1.91666ZM1.92169 15.4833L6.43669 10.8717L11.6717 16.0833H2.54169C2.20669 16.0833 1.93585 15.815 1.92169 15.4833ZM15.4584 16.0833H13.4417L9.26919 11.9275L12.4292 8.71916L16.0834 12.3725V15.4583C16.0834 15.8025 15.8025 16.0833 15.4584 16.0833Z" fill="#1D9BF0"/>
<path d="M6.39004 7.20917C7.09973 7.20917 7.67504 6.63385 7.67504 5.92417C7.67504 5.21448 7.09973 4.63917 6.39004 4.63917C5.68036 4.63917 5.10504 5.21448 5.10504 5.92417C5.10504 6.63385 5.68036 7.20917 6.39004 7.20917Z" fill="#1D9BF0"/>
</svg>
